<svg width="149" height="34" viewBox="0 0 149 34" fill="none" xmlns="http://www.w3.org/2000/svg">
<rect width="149" height="34" fill="black" fill-opacity="0"/>
<path d="M144.477 0H0V29.6552H144.477V0Z" fill="white"/>
<rect width="132.208" height="16" fill="black" fill-opacity="0" transform="translate(6.16837 6.44827)"/>
<path d="M13.1934 22.1034C12.6109 22.1379 12.0283 22.1724 11.4115 22.2069C10.7946 22.2414 10.1778 22.2413 9.56096 22.2413L6.54532 22.0689V19.2069L8.19021 18.8965V10.4827H6.16837L6.37398 7.72411C7.47057 7.68962 8.63571 7.65514 9.80084 7.55169C10.966 7.48273 12.2339 7.44824 13.5361 7.44824C14.2558 7.44824 14.9411 7.51721 15.5922 7.62066C16.2433 7.7241 16.8602 7.96549 17.477 8.27583C18.5051 8.79307 19.259 9.51721 19.8073 10.4482C20.3556 11.3793 20.6297 12.4827 20.6297 13.7586C20.6297 14.8965 20.4584 15.9655 20.0814 16.9655C19.7387 17.9655 19.2247 18.8276 18.5736 19.5862C17.9225 20.3448 17.1343 20.931 16.2433 21.3793C15.3524 21.8276 14.29 22.0689 13.1934 22.1034ZM16.4832 11.9655C16.1748 11.6551 15.8664 11.4138 15.4894 11.2069C15.1125 11.0345 14.7355 10.862 14.29 10.7586C13.8445 10.6551 13.4333 10.5862 12.9878 10.5517C12.5423 10.5172 12.0968 10.4827 11.6513 10.4827H11.103V19.1034L12.7479 19.1379C13.399 19.1379 14.0501 19.0689 14.6327 18.8965C15.2153 18.7241 15.7293 18.4827 16.1748 18.1034C16.6203 17.7586 16.963 17.3103 17.2029 16.7586C17.4427 16.2069 17.5798 15.5862 17.5798 14.8276C17.5798 14.2758 17.477 13.7241 17.3057 13.2413C17.1343 12.7931 16.8602 12.3448 16.4832 11.9655Z" fill="#031928"/>
<path d="M22.583 12C23.1313 11.8965 23.6454 11.7586 24.0909 11.6552C24.5706 11.5172 25.0161 11.4138 25.4616 11.3103C25.9071 11.2069 26.3526 11.1379 26.7981 11.069C27.2436 11 27.7233 10.9655 28.2031 10.9655C28.957 10.9655 29.5738 11.1034 30.0193 11.3448C30.4991 11.5862 30.8418 11.931 31.1159 12.3448C31.3901 12.7586 31.5614 13.2414 31.6642 13.7931C31.767 14.3448 31.8013 14.931 31.8356 15.5172C31.8698 16.1034 31.8356 16.7241 31.8013 17.3448C31.767 17.9655 31.767 18.5172 31.767 19.069C31.8356 19.1034 31.9384 19.1379 32.1097 19.1724C32.2811 19.2069 32.4524 19.2414 32.6237 19.3103C32.7951 19.3448 32.9664 19.4138 33.1378 19.4483C33.3091 19.4828 33.4119 19.5172 33.4805 19.5517C33.4805 19.7586 33.4805 19.931 33.4462 20.1379C33.4119 20.3448 33.4119 20.5172 33.4119 20.7241L33.3434 21.8965C33.2406 21.8965 33.0692 21.8965 32.8636 21.8965C32.658 21.8965 32.4524 21.8965 32.2125 21.931C31.9726 21.931 31.7328 21.9655 31.4586 21.9655C31.1845 21.9655 30.9103 21.9655 30.6704 22C30.3963 22 30.1564 22 29.9165 22C29.6766 22 29.471 22 29.2997 22C29.2997 22 29.2654 21.9655 29.2654 21.931C29.2654 21.8965 29.2654 21.8621 29.2654 21.8276C29.2654 21.6897 29.2654 21.5172 29.2654 21.3103C29.2654 21.1034 29.2654 20.8965 29.2654 20.6896C29.2654 20.4828 29.2654 20.2414 29.2654 20.0345C29.2654 19.8276 29.2654 19.6207 29.2654 19.4828C29.2311 19.4828 29.2311 19.4828 29.1969 19.5172C29.1969 19.5172 29.1626 19.5517 29.1283 19.5517C28.7514 20.5172 28.2031 21.2414 27.5177 21.6552C26.8323 22.1034 26.0442 22.3103 25.1189 22.3103C24.6049 22.3103 24.1594 22.2414 23.7482 22.069C23.3369 21.8965 22.96 21.6896 22.6516 21.3793C22.3432 21.069 22.1033 20.7241 21.9319 20.3448C21.7606 19.9655 21.692 19.5172 21.692 19.0345C21.692 18.3448 21.8291 17.7931 22.069 17.3103C22.3089 16.8621 22.6858 16.4828 23.0971 16.2069C23.5426 15.931 24.0223 15.7241 24.5706 15.6207C25.1189 15.5172 25.7015 15.4483 26.284 15.4483C26.7981 15.4483 27.3121 15.4828 27.8261 15.5517C28.3402 15.6207 28.8199 15.7241 29.2654 15.8621V15.3103C29.2654 15.069 29.2654 14.8276 29.2311 14.6552C29.1969 14.4483 29.1283 14.3103 28.9913 14.1724C28.8885 14.0345 28.6828 13.931 28.443 13.8621C28.2031 13.7931 27.8947 13.7586 27.4834 13.7586C27.3806 13.7586 27.2436 13.7586 27.0037 13.7931C26.7981 13.8276 26.5239 13.8276 26.2498 13.8621C25.9414 13.8965 25.6329 13.931 25.2903 13.9655C24.9476 14 24.6049 14.069 24.2622 14.1034C23.9195 14.1379 23.6111 14.2069 23.3027 14.2414C22.9943 14.2759 22.7544 14.3448 22.5488 14.3793L22.583 12ZM29.1283 17.4138C29.0941 17.3793 29.0255 17.3793 28.9227 17.3448C28.8199 17.3103 28.7171 17.3103 28.58 17.2759C28.4087 17.2414 28.2031 17.2069 27.9632 17.1724C27.7919 17.1379 27.5863 17.1379 27.3464 17.1034C27.1065 17.069 26.8666 17.069 26.5925 17.0345C26.3183 17.0345 26.0784 17.0345 25.8043 17.069C25.5644 17.1034 25.3245 17.1724 25.1189 17.2759C24.9133 17.3793 24.742 17.5172 24.6049 17.6897C24.4678 17.8621 24.3993 18.1034 24.3993 18.3793C24.3993 18.5862 24.4335 18.7586 24.5021 18.8966C24.5706 19.0345 24.6734 19.1379 24.8105 19.2069C24.9476 19.2759 25.1189 19.3448 25.3245 19.3793C25.5301 19.4138 25.77 19.4138 26.0442 19.4138C26.4897 19.4138 26.8666 19.3448 27.2436 19.2069C27.6205 19.069 27.9289 18.931 28.2031 18.7241C28.4772 18.5172 28.6828 18.3103 28.8542 18.069C29.0598 17.8621 29.1283 17.6207 29.1283 17.4138Z" fill="#031928"/>
<path d="M44.0009 14.4483C43.8639 14.7586 43.6583 15.1724 43.4184 15.6896C43.1785 16.2069 42.9043 16.8276 42.5617 17.5172C42.3218 18 42.1162 18.4483 41.9106 18.931C41.7049 19.4138 41.4993 19.862 41.328 20.2758C41.1566 20.6896 40.9853 21.0345 40.8482 21.3448C40.7112 21.6552 40.6083 21.8965 40.5398 22.0345C40.06 22.0345 39.5803 22.0689 39.1348 22.0689C38.655 22.0689 38.1753 22.0689 37.6955 22.0689C37.627 22.0689 37.5584 22.0689 37.4899 22.0689C37.4214 22.0689 37.3528 22.0689 37.2843 22.0689C37.1472 21.7931 37.0101 21.4827 36.8731 21.0689C36.7017 20.6896 36.5646 20.2414 36.359 19.7241C36.1534 19.2069 35.9821 18.6896 35.7765 18.1379C35.5709 17.5517 35.331 16.9655 35.0568 16.3448C34.954 16.0689 34.8512 15.8276 34.7484 15.6207C34.6799 15.4138 34.6113 15.2414 34.5428 15.0689C34.4743 14.931 34.4057 14.7931 34.3372 14.6896C34.2687 14.5862 34.2001 14.4827 34.0973 14.3793L33.1035 14.3103C33.1035 13.8965 33.1378 13.4483 33.1721 12.9655C33.2063 12.4827 33.2063 12.0345 33.2063 11.6207C33.3434 11.6207 33.549 11.6207 33.8232 11.6207C34.0973 11.6207 34.3715 11.6207 34.7141 11.6207C35.0568 11.6207 35.3995 11.6207 35.7765 11.6207C36.1534 11.6207 36.5304 11.6207 36.8731 11.6207C37.25 11.6207 37.5927 11.6207 37.9354 11.6207C38.2781 11.6207 38.5522 11.6207 38.8264 11.5862C38.8606 11.6551 38.8606 11.7586 38.8606 11.8965C38.8606 12.0345 38.8606 12.2069 38.8606 12.3793C38.8606 12.5517 38.8606 12.7586 38.8264 12.9655C38.7921 13.1724 38.7921 13.3448 38.7921 13.5172C38.7921 13.6896 38.7578 13.8276 38.7578 13.9655C38.7578 14.1034 38.7578 14.1724 38.7578 14.2069L37.25 14.3448C37.2843 14.4827 37.3871 14.6896 37.4556 14.8965C37.5584 15.1379 37.6612 15.3793 37.7641 15.6552C37.8669 15.931 38.0039 16.2069 38.141 16.5172C38.2781 16.8276 38.3809 17.1034 38.518 17.3793C38.6208 17.6552 38.7236 17.931 38.8264 18.2069C38.9292 18.4483 38.9635 18.6896 39.032 18.8965L39.2376 18.931C39.3061 18.7931 39.3747 18.6207 39.5117 18.3793C39.6488 18.1379 39.7516 17.8965 39.8887 17.6207C40.0258 17.3448 40.1629 17.0689 40.2999 16.7586C40.437 16.4483 40.5741 16.1724 40.7112 15.862C40.8482 15.5862 40.951 15.3103 41.0196 15.0689C41.1224 14.8276 41.1566 14.6207 41.1909 14.4138L39.8887 14.3103L40.06 11.7931C40.5055 11.8276 40.951 11.8276 41.4651 11.7931C41.9448 11.7931 42.4589 11.7586 42.9386 11.7586C43.4184 11.7586 43.8639 11.7241 44.3094 11.7241C44.7206 11.7241 45.0975 11.6896 45.406 11.7241C45.406 12.1724 45.406 12.5862 45.3717 13.0345C45.3717 13.4483 45.3374 13.8965 45.3374 14.3448L44.0009 14.4483Z" fill="#031928"/>
<path d="M52.6366 22.1034C51.6771 22.1379 50.6833 22.1724 49.6553 22.1724C48.6272 22.1724 47.5991 22.1724 46.6396 22.1379C46.6396 21.7931 46.6739 21.3793 46.7082 20.8965C46.7424 20.4483 46.7767 20 46.7767 19.5517C46.8795 19.5172 46.9823 19.5172 47.1536 19.4828C47.325 19.4483 47.4621 19.4483 47.6334 19.4138C47.8047 19.3793 47.9761 19.3793 48.1132 19.3793C48.2845 19.3793 48.4216 19.3448 48.5244 19.3448C48.5244 19.3448 48.4901 19.2759 48.4901 19.1035C48.4901 18.931 48.4559 18.6897 48.4559 18.3793C48.4559 18.069 48.4559 17.7586 48.4559 17.3793C48.4559 17 48.4559 16.6552 48.4559 16.3103V14.7241C48.3188 14.6897 48.1474 14.6552 48.0104 14.6207C47.8733 14.5862 47.7019 14.5862 47.5649 14.5517C47.4278 14.5172 47.2565 14.5172 47.1194 14.4828C46.9823 14.4483 46.811 14.4138 46.6396 14.3448C46.6396 14.1034 46.6739 13.8966 46.6739 13.6897C46.6739 13.4828 46.6739 13.2759 46.6739 13.1034C46.6739 12.8966 46.6739 12.7241 46.6739 12.5172C46.6739 12.3103 46.6739 12.1034 46.7082 11.8621C47.0851 11.8621 47.4621 11.8621 47.839 11.8621C48.216 11.8621 48.5929 11.8621 48.9699 11.8276C49.3468 11.7931 49.7581 11.8276 50.1693 11.7931C50.5805 11.7931 51.026 11.7931 51.5058 11.7931L51.3344 19.4828C51.4715 19.5172 51.6428 19.5517 51.917 19.5517C52.1911 19.5862 52.4996 19.6207 52.8765 19.7586C52.8765 19.9655 52.8765 20.1724 52.8422 20.3793C52.808 20.6207 52.808 20.8276 52.7737 21.0345C52.7394 21.2414 52.7394 21.4483 52.7052 21.6552C52.6709 21.7931 52.6709 21.9655 52.6366 22.1034ZM47.4278 8.51724C47.5306 8.31034 47.6334 8.06896 47.7705 7.86207C47.9076 7.65517 48.0789 7.44827 48.2502 7.27586C48.4216 7.10344 48.6272 6.93103 48.8328 6.7931C49.0384 6.65517 49.244 6.55172 49.4839 6.44827H49.621C50.0665 6.62069 50.4434 6.89655 50.8204 7.24138C51.1631 7.62069 51.4372 8 51.6428 8.44827V8.62069C51.4715 9.06896 51.1973 9.48275 50.8547 9.86206C50.512 10.2414 50.1007 10.5172 49.6895 10.6897H49.5525C49.3811 10.5862 49.2098 10.4828 49.0042 10.3103C48.7985 10.1379 48.5929 9.96551 48.4216 9.7931C48.216 9.62069 48.0446 9.41379 47.8733 9.20689C47.7019 9 47.5991 8.82758 47.4963 8.65517V8.51724H47.4278Z" fill="#031928"/>
<path d="M66.4469 21.9999C65.9671 22.0344 65.5559 22.0689 65.2132 22.0689C64.8705 22.0689 64.5621 22.0689 64.2537 22.1034C63.9453 22.1034 63.6369 22.1034 63.2942 22.1034C62.9857 22.1034 62.5745 22.1034 62.129 22.1379C62.129 21.6896 62.1633 21.2758 62.1976 20.8275C62.2318 20.3793 62.2661 19.931 62.2661 19.4482C62.2318 19.4482 62.2318 19.4137 62.1976 19.3793C62.1633 19.3448 62.1633 19.3103 62.1633 19.3448C61.9577 19.862 61.6835 20.2758 61.3751 20.6896C61.0667 21.0689 60.724 21.4137 60.3813 21.6551C60.0386 21.931 59.6617 22.1034 59.2847 22.2413C58.9078 22.3793 58.5308 22.4482 58.1881 22.4482C57.5028 22.4482 56.9202 22.3448 56.4062 22.1034C55.8921 21.8965 55.4809 21.5517 55.1382 21.1379C54.7955 20.7241 54.5557 20.2068 54.3843 19.6206C54.213 19.0344 54.1444 18.3448 54.1444 17.5861C54.1444 16.793 54.2472 16.0344 54.4529 15.3103C54.6585 14.5862 55.0012 13.9655 55.4124 13.4137C55.8579 12.862 56.3719 12.4137 57.023 12.1034C57.6741 11.793 58.428 11.6206 59.2847 11.6206C59.6617 11.6206 60.0386 11.6551 60.4499 11.7241C60.8611 11.793 61.3066 11.931 61.7863 12.1379C61.7863 12.1034 61.7863 12.0689 61.7863 12.0344C61.7863 11.9999 61.7863 11.9655 61.7863 11.8965C61.7863 11.5862 61.7863 11.3103 61.7863 11.1034C61.7863 10.862 61.7863 10.6896 61.7863 10.4827C61.7863 10.2758 61.7863 10.1034 61.7863 9.93098C61.7863 9.75856 61.7863 9.58615 61.7863 9.34477L59.7988 9.24132C59.7988 8.99994 59.7988 8.72408 59.7988 8.44822C59.7988 8.17236 59.833 7.89649 59.833 7.65511C59.8673 7.41373 59.8673 7.17235 59.9016 6.96546C59.9358 6.75856 59.9358 6.62063 59.9701 6.55167C60.21 6.55167 60.4499 6.51718 60.7583 6.51718C61.0324 6.51718 61.3409 6.51718 61.6493 6.51718C61.9577 6.51718 62.2661 6.51718 62.5745 6.51718C62.8829 6.51718 63.1571 6.51718 63.4312 6.51718C63.7054 6.51718 63.9453 6.51718 64.1509 6.55167C64.3565 6.58615 64.5278 6.58615 64.6306 6.58615C64.6306 6.86201 64.6306 7.20684 64.6306 7.6896C64.6306 8.17236 64.6306 8.6896 64.5964 9.31029C64.5964 9.93098 64.5621 10.6206 64.5621 11.3793C64.5621 12.1379 64.5278 12.931 64.5278 13.7586C64.5278 14.5861 64.5278 15.4827 64.5278 16.3792C64.5278 17.2758 64.5621 18.2068 64.5964 19.1379C64.9048 19.2068 65.2475 19.2758 65.5216 19.3448C65.7958 19.4137 66.1385 19.4827 66.4811 19.5517C66.4811 19.7241 66.4811 19.9655 66.5154 20.2413C66.5154 20.5172 66.5154 20.793 66.5154 21.0689C66.5154 21.3448 66.5154 21.5517 66.4811 21.7241C66.5154 21.9655 66.4811 22.0344 66.4469 21.9999ZM58.3595 19.5862C58.7707 19.5862 59.1134 19.5172 59.4561 19.3793C59.7988 19.2413 60.0729 19.0344 60.3471 18.793C60.6212 18.5517 60.8268 18.2758 61.0324 17.931C61.238 17.6206 61.3751 17.2413 61.5122 16.8965C61.6493 16.5172 61.7521 16.1724 61.8206 15.7586C61.8892 15.3793 61.9234 14.9999 61.9577 14.6206C61.9234 14.6206 61.8206 14.5861 61.7178 14.5172C61.615 14.4827 61.4779 14.4137 61.2723 14.3793C61.101 14.3448 60.8954 14.3103 60.6897 14.2758C60.4499 14.2413 60.21 14.2068 59.9701 14.2068C58.8735 14.2068 58.0853 14.4827 57.5713 15.0689C57.0573 15.6551 56.7831 16.4827 56.7831 17.5517C56.7831 18.1724 56.9202 18.6896 57.1944 19.0344C57.4 19.4137 57.8112 19.5862 58.3595 19.5862Z" fill="#031928"/>
<path d="M90.6748 10.6207C90.4007 10.6207 90.1608 10.6207 89.9552 10.6207C89.7496 10.6207 89.5097 10.6207 89.2698 10.6207C89.0984 10.8965 88.8243 11.2758 88.4816 11.7241C88.1389 12.1724 87.762 12.6896 87.3507 13.2414C86.9395 13.7931 86.494 14.3793 86.0143 15C85.5688 15.6207 85.1233 16.2069 84.6778 16.8276L84.6093 19.1379C84.7463 19.1724 84.8834 19.2069 85.1233 19.2414C85.3289 19.2758 85.5345 19.2758 85.7744 19.3103C85.98 19.3448 86.1513 19.3448 86.3227 19.3448C86.494 19.3448 86.5626 19.3793 86.5626 19.4138C86.5626 19.6551 86.5626 20 86.5626 20.4827C86.5626 20.9655 86.5283 21.4827 86.4598 22.0345C86.2884 22.0345 86.0485 22.0345 85.7059 22.0345C85.3974 22.0345 85.0205 22.0345 84.6093 22.0689C84.198 22.0689 83.7525 22.0689 83.3071 22.1034C82.8616 22.1034 82.3818 22.1379 81.9706 22.1379C81.5251 22.1379 81.1139 22.1379 80.7369 22.1379C80.3599 22.1379 80.0173 22.1379 79.7774 22.1034C79.7774 22.0345 79.7774 21.931 79.7431 21.7241C79.7431 21.5172 79.7431 21.2758 79.7431 21.0345C79.7431 20.7931 79.7431 20.4827 79.7431 20.1724C79.7431 19.862 79.7431 19.5862 79.7774 19.3103C79.7774 19.2758 79.8459 19.2758 79.9487 19.2414C80.0515 19.2414 80.1543 19.2069 80.2914 19.2069C80.4285 19.2069 80.5656 19.2069 80.7369 19.2069C80.9082 19.2069 81.0453 19.2069 81.1824 19.2069C81.3195 19.2069 81.4565 19.2069 81.5593 19.2069C81.6622 19.2069 81.7307 19.1724 81.765 19.1724L81.7992 16.6551C81.6964 16.5172 81.5594 16.2758 81.3195 15.9655C81.0796 15.6551 80.8054 15.2758 80.497 14.8965C80.1886 14.5172 79.8459 14.0689 79.469 13.5862C79.092 13.1034 78.7493 12.6896 78.4066 12.2758C78.064 11.862 77.7555 11.4827 77.4814 11.1724C77.2072 10.862 77.0016 10.6207 76.8303 10.4483C76.5561 10.4138 76.3163 10.3448 76.1106 10.3448C75.905 10.3103 75.768 10.2758 75.6651 10.2758C75.6651 10.1379 75.6994 9.93101 75.6994 9.68963C75.6994 9.44825 75.7337 9.17239 75.7337 8.93101C75.7337 8.68963 75.768 8.41377 75.768 8.17239C75.8022 7.93101 75.8022 7.75859 75.8365 7.62066C75.9393 7.62066 76.1449 7.58618 76.4533 7.58618C76.7617 7.58618 77.1387 7.58618 77.5842 7.62066C78.0297 7.62066 78.5094 7.65515 78.9892 7.65515C79.5032 7.68963 79.983 7.68963 80.4628 7.68963C80.9425 7.68963 81.3537 7.72411 81.7307 7.72411C82.1076 7.72411 82.3818 7.72411 82.5874 7.72411C82.5874 8.17239 82.5531 8.62066 82.4846 9.10342C82.4503 9.58618 82.4161 10.0345 82.4161 10.4827C82.1419 10.5172 81.8678 10.5517 81.5936 10.5172C81.3195 10.4827 81.0111 10.5517 80.7369 10.5862C80.8054 10.6896 80.9082 10.862 81.0453 11.0689C81.1824 11.2758 81.3537 11.5172 81.5593 11.7931C81.7307 12.0689 81.9363 12.3448 82.1419 12.6551C82.3475 12.9655 82.5531 13.2414 82.7245 13.4827C82.8958 13.7241 83.0672 13.9655 83.17 14.1724C83.3071 14.3793 83.3756 14.4827 83.4099 14.5517C83.4099 14.5517 83.4441 14.5517 83.4441 14.5172C83.4784 14.4827 83.5127 14.4138 83.5812 14.3448C83.6497 14.2758 83.7525 14.1034 83.8554 13.931C83.9582 13.7586 84.1295 13.5172 84.3008 13.2069C84.5065 12.8965 84.7121 12.5517 84.9862 12.1379C85.2604 11.7241 85.603 11.2069 85.98 10.5862C85.98 10.5517 85.8772 10.5517 85.7401 10.5517C85.6031 10.5517 85.4317 10.5172 85.2604 10.5172C85.089 10.5172 84.8834 10.4827 84.7121 10.4483C84.5407 10.4138 84.3694 10.3793 84.2666 10.3448C84.2666 10.0689 84.2666 9.7586 84.2666 9.48273C84.2666 9.20687 84.2666 8.93101 84.2666 8.68963C84.2666 8.44825 84.2666 8.24135 84.3008 8.06894C84.3008 7.89652 84.3351 7.79308 84.3351 7.72411C85.4317 7.72411 86.494 7.68963 87.5564 7.65515C88.6187 7.58618 89.681 7.58618 90.7433 7.62066C90.7776 7.86204 90.7776 8.10342 90.7776 8.31032C90.7776 8.51721 90.7433 8.72411 90.7433 8.96549C90.7433 9.20687 90.7091 9.44825 90.6748 9.72411C90.7433 9.93101 90.7091 10.2414 90.6748 10.6207Z" fill="#031928"/>
<path d="M104.725 22.0344C104.211 22.0689 103.697 22.1034 103.149 22.1034C102.6 22.1034 102.086 22.1034 101.538 22.1034H100.441C100.441 21.8275 100.441 21.5172 100.476 21.2413C100.51 20.931 100.51 20.6206 100.51 20.3103C100.544 20.2069 100.578 20.0689 100.647 19.931C100.716 19.7931 100.784 19.6551 100.853 19.5172L100.75 19.4827C100.51 19.8275 100.27 20.1724 99.9616 20.5172C99.6532 20.862 99.3448 21.1724 99.0021 21.4482C98.6594 21.7241 98.2825 21.9655 97.8712 22.1034C97.46 22.2413 97.0488 22.3448 96.6033 22.3448C95.6095 22.3448 94.8556 22 94.3073 21.3103C93.759 20.6206 93.5191 19.6206 93.5191 18.2758C93.5191 17.6206 93.5534 17.0344 93.5877 16.4482C93.6219 15.862 93.6562 15.3103 93.6562 14.7931L91.7029 14.3103C91.7029 14.2068 91.7029 13.931 91.7372 13.5517C91.7714 13.1724 91.7714 12.5862 91.84 11.7931C92.2512 11.7931 92.6624 11.7931 93.1079 11.7931C93.5191 11.7931 93.9303 11.7931 94.3416 11.7586C94.7528 11.7586 95.1297 11.7586 95.4724 11.7241C95.8151 11.7241 96.1578 11.7241 96.3977 11.7241C96.3977 11.7586 96.3977 11.7931 96.3977 11.8275C96.3977 11.862 96.3977 11.931 96.3977 12.0689C96.3977 12.2068 96.3977 12.3793 96.3977 12.6206C96.3977 12.862 96.3977 13.1724 96.3634 13.5862C96.3634 14 96.3291 14.5172 96.3291 15.1379C96.3291 15.7586 96.2949 16.5517 96.2606 17.4482C96.2606 17.7241 96.2949 17.9655 96.3291 18.2069C96.3634 18.4482 96.4662 18.6206 96.569 18.7931C96.6718 18.9655 96.8089 19.0689 96.9802 19.1724C97.1516 19.2758 97.3229 19.3103 97.5628 19.3103C98.0083 19.3103 98.4195 19.1034 98.8308 18.6896C99.242 18.3793 99.5847 17.9655 99.8245 17.5517C100.064 17.1034 100.27 16.6206 100.441 16.1034V14.6551L98.4538 14.1379C98.4538 14.0689 98.4538 13.931 98.4538 13.7586C98.4538 13.5862 98.4538 13.3793 98.4881 13.1379C98.5223 12.8965 98.5223 12.6551 98.5223 12.4137C98.5566 12.1724 98.5566 11.9655 98.5909 11.7586C99.2762 11.7586 99.9274 11.7241 100.476 11.7241C101.024 11.6896 101.572 11.6896 102.086 11.6896C102.326 11.6896 102.566 11.6896 102.806 11.6896C103.046 11.6896 103.286 11.7241 103.526 11.7241V12.4137C103.526 13.0344 103.526 13.6551 103.491 14.2758C103.457 14.8965 103.457 15.4827 103.423 16.0689C103.388 16.6551 103.388 17.2068 103.354 17.7586C103.32 18.3103 103.32 18.7931 103.32 19.2758C103.56 19.3103 103.765 19.3793 104.005 19.4482C104.245 19.5172 104.485 19.5862 104.759 19.6206C104.759 20 104.759 20.3793 104.759 20.7931C104.725 21.3103 104.725 21.6896 104.725 22.0344Z" fill="#031928"/>
<path d="M110.585 22.3448C110.139 22.3448 109.728 22.3103 109.317 22.2414C108.906 22.1724 108.494 22.1034 108.083 22C107.809 21.931 107.569 21.8621 107.364 21.7586C107.158 21.6552 106.952 21.5862 106.781 21.5172C106.61 21.4483 106.473 21.3793 106.336 21.3103C106.198 21.2414 106.13 21.2069 106.061 21.1724C106.061 21 106.061 20.7931 106.096 20.5517C106.13 20.3103 106.164 20.1034 106.198 19.8621C106.233 19.6207 106.267 19.4138 106.301 19.2069C106.336 19 106.37 18.8276 106.37 18.6896C106.336 18.6896 106.37 18.7241 106.473 18.7586C106.575 18.8276 106.747 18.8965 106.918 18.9655C107.124 19.0345 107.364 19.1379 107.638 19.2414C107.912 19.3448 108.22 19.4483 108.529 19.5172C108.837 19.5862 109.18 19.6552 109.523 19.7241C109.865 19.7931 110.174 19.8276 110.516 19.8276C110.756 19.8276 110.996 19.7931 111.202 19.7586C111.442 19.7241 111.613 19.6552 111.784 19.5862C111.956 19.5172 112.093 19.4138 112.195 19.2759C112.298 19.1724 112.333 19 112.333 18.8276C112.333 18.7241 112.264 18.6207 112.161 18.5862C112.024 18.5172 111.887 18.4827 111.647 18.4483C111.442 18.4138 111.202 18.3793 110.928 18.3448C110.653 18.3103 110.345 18.2414 110.037 18.1724C109.385 18.0345 108.803 17.8965 108.323 17.7241C107.843 17.5862 107.466 17.3793 107.158 17.1724C106.85 16.9655 106.61 16.6897 106.473 16.3448C106.336 16 106.267 15.6207 106.267 15.1379C106.267 14.8965 106.301 14.6897 106.336 14.4483C106.37 14.2414 106.438 14 106.507 13.7931C106.678 13.3103 106.918 12.931 107.192 12.6207C107.466 12.3103 107.809 12.069 108.186 11.8621C108.563 11.6896 108.974 11.5517 109.42 11.4828C109.865 11.4138 110.345 11.3793 110.825 11.3793C111.167 11.3793 111.51 11.4138 111.887 11.4483C112.264 11.4828 112.641 11.5517 113.018 11.6207C113.395 11.6896 113.738 11.7931 114.08 11.8621C114.423 11.9655 114.663 12.069 114.903 12.1724C114.937 12.3793 114.937 12.6552 114.937 12.9655C114.937 13.2759 114.937 13.6207 114.937 13.931C114.937 14.2759 114.903 14.5862 114.903 14.8965C114.868 15.2069 114.868 15.4483 114.834 15.6552L112.401 15.5172C112.401 15.2414 112.401 14.9655 112.401 14.6896C112.435 14.4483 112.435 14.2069 112.401 14C112.367 14 112.298 14 112.23 13.9655C112.161 13.9655 112.058 13.931 111.956 13.931C111.853 13.931 111.681 13.8965 111.476 13.8965C111.27 13.8965 111.03 13.8621 110.722 13.8276C110.174 13.8276 109.762 13.8965 109.488 14C109.214 14.1034 109.077 14.3103 109.077 14.6207C109.077 14.8621 109.214 15.069 109.454 15.2414C109.694 15.4138 110.037 15.5517 110.448 15.6552C111.202 15.7586 111.853 15.8965 112.367 16C112.881 16.1379 113.361 16.2759 113.703 16.4138C114.08 16.5517 114.354 16.7241 114.56 16.8965C114.766 17.069 114.937 17.2759 115.04 17.4828C115.143 17.6896 115.245 17.931 115.245 18.1724C115.28 18.4138 115.28 18.6896 115.28 18.9655C115.28 19.4483 115.177 19.8621 114.971 20.2759C114.766 20.6896 114.457 21.0345 114.046 21.3448C113.635 21.6552 113.155 21.8965 112.538 22.069C111.921 22.2414 111.373 22.3448 110.585 22.3448Z" fill="#031928"/>
<path d="M129.57 22.0345C129.056 22.069 128.542 22.1034 127.993 22.1034C127.445 22.1034 126.931 22.1034 126.383 22.1034H125.286C125.286 21.8276 125.286 21.5172 125.32 21.2414C125.355 20.931 125.355 20.6207 125.355 20.3103C125.389 20.2069 125.423 20.069 125.492 19.931C125.56 19.7931 125.629 19.6552 125.697 19.5172L125.595 19.4827C125.355 19.8276 125.115 20.1724 124.806 20.5172C124.498 20.8621 124.19 21.1724 123.847 21.4483C123.504 21.7241 123.127 21.9655 122.716 22.1034C122.305 22.2414 121.894 22.3448 121.448 22.3448C120.454 22.3448 119.7 22 119.152 21.3103C118.604 20.6207 118.364 19.6207 118.364 18.2758C118.364 17.6207 118.398 17.0345 118.432 16.4483C118.467 15.8621 118.501 15.3103 118.501 14.7931L116.548 14.3793C116.548 14.2758 116.548 14 116.582 13.6207C116.616 13.2414 116.616 12.6552 116.685 11.8621C117.096 11.8621 117.507 11.8621 117.953 11.8621C118.364 11.8621 118.775 11.8621 119.186 11.8276C119.598 11.8276 119.974 11.8276 120.317 11.7931C120.66 11.7931 121.003 11.7931 121.242 11.7931C121.242 11.8276 121.242 11.8621 121.242 11.8965C121.242 11.931 121.242 12 121.242 12.1379C121.242 12.2758 121.242 12.4483 121.242 12.6896C121.242 12.931 121.242 13.2414 121.208 13.6552C121.208 14.069 121.174 14.5862 121.174 15.2069C121.174 15.8276 121.14 16.6207 121.105 17.5172C121.105 17.7931 121.14 18.0345 121.174 18.2758C121.208 18.5172 121.311 18.6896 121.414 18.8621C121.517 19.0345 121.654 19.1379 121.825 19.2414C121.996 19.3448 122.168 19.3793 122.408 19.3793C122.853 19.3793 123.264 19.1724 123.675 18.7586C124.087 18.4483 124.429 18.0345 124.669 17.6207C124.909 17.1724 125.115 16.6896 125.286 16.1724V14.7241L123.299 14.2069C123.299 14.1379 123.299 14 123.299 13.8276C123.299 13.6552 123.299 13.4483 123.333 13.2069C123.367 12.9655 123.367 12.7241 123.367 12.4827C123.401 12.2414 123.401 12.0345 123.436 11.8276C124.121 11.8276 124.772 11.7931 125.32 11.7931C125.869 11.7586 126.417 11.7586 126.931 11.7586C127.171 11.7586 127.411 11.7586 127.651 11.7586C127.891 11.7586 128.13 11.7931 128.37 11.7931V12.4827C128.37 13.1034 128.37 13.7241 128.336 14.3448C128.302 14.9655 128.302 15.5517 128.267 16.1379C128.233 16.7241 128.233 17.2758 128.199 17.8276C128.165 18.3793 128.165 18.8621 128.165 19.3448C128.405 19.3793 128.61 19.4483 128.85 19.5172C129.09 19.5862 129.33 19.6552 129.604 19.6896C129.604 20.069 129.604 20.4483 129.604 20.8621C129.57 21.3103 129.57 21.6896 129.57 22.0345Z" fill="#031928"/>
<path d="M132.414 18.5517C132.448 18.2069 132.448 17.8965 132.448 17.5517C132.448 17.2069 132.448 16.862 132.448 16.5517C132.448 16.2069 132.448 15.8965 132.414 15.6207C132.414 15.3448 132.38 15.0689 132.38 14.862C132.38 14.6551 132.38 14.4827 132.38 14.3448C132.311 14.3448 132.174 14.3448 132.037 14.3448C131.9 14.3448 131.729 14.3448 131.592 14.3448C131.454 14.3448 131.283 14.3448 131.112 14.3448C130.94 14.3448 130.803 14.3448 130.701 14.3448C130.666 13.931 130.666 13.5172 130.632 13.1379C130.632 12.7586 130.632 12.3448 130.632 12C130.735 11.9655 130.872 11.9655 131.043 11.9655C131.215 11.9655 131.386 11.9655 131.523 11.931C131.694 11.931 131.831 11.8965 131.934 11.8965C132.037 11.8965 132.14 11.862 132.14 11.862C131.866 11.1379 131.797 10.4827 131.866 9.82756C131.934 9.20687 132.174 8.65515 132.517 8.17239C132.859 7.68963 133.339 7.34481 133.922 7.06894C134.504 6.79308 135.19 6.65515 135.978 6.65515C136.218 6.65515 136.458 6.68963 136.698 6.72412C136.937 6.7586 137.177 6.82756 137.383 6.89653C137.589 6.9655 137.794 7.06894 137.966 7.17239C138.137 7.27584 138.274 7.37929 138.377 7.51722L138.137 9.89653C137.828 9.65515 137.486 9.44825 137.177 9.3448C136.869 9.20687 136.56 9.13791 136.286 9.13791C136.012 9.13791 135.772 9.17239 135.532 9.27584C135.327 9.37929 135.155 9.5517 135.018 9.7586C134.916 9.9655 134.847 10.2414 134.847 10.5862C134.847 10.8965 134.95 11.2758 135.121 11.7241C135.293 11.7586 135.498 11.7586 135.704 11.7586C135.909 11.7586 136.149 11.7586 136.355 11.7586C136.56 11.7586 136.8 11.7241 137.006 11.7241C137.212 11.7241 137.383 11.7241 137.554 11.7241C137.726 11.7241 137.828 11.7241 137.931 11.7586C138.034 11.7931 138.068 11.7931 138.068 11.862C138.068 12.2414 138.068 12.6552 138.034 13.1034C138 13.5517 138 13.9655 138 14.3793C137.966 14.3793 137.897 14.3793 137.863 14.3793C137.794 14.3793 137.657 14.3793 137.486 14.3793C137.314 14.3793 137.04 14.3793 136.663 14.3793C136.321 14.3793 135.807 14.3793 135.19 14.3793C135.19 14.3793 135.19 14.4827 135.155 14.6551C135.155 14.8276 135.155 15.0345 135.121 15.3103C135.121 15.5862 135.121 15.8965 135.087 16.2069C135.087 16.5517 135.053 16.8965 135.053 17.2758C135.053 17.6551 135.053 18.0345 135.053 18.4138C135.053 18.7931 135.053 19.1724 135.053 19.5172C135.155 19.5172 135.293 19.5517 135.43 19.5517C135.567 19.5517 135.738 19.5862 135.909 19.5862C136.081 19.5862 136.252 19.6207 136.423 19.6551C136.595 19.6896 136.732 19.6896 136.869 19.7241C137.006 19.7586 137.075 19.7586 137.143 19.7931C137.212 19.8276 137.212 19.8276 137.143 19.862C137.143 20.2069 137.143 20.5862 137.143 20.9655C137.143 21.3448 137.143 21.7241 137.109 22.1034C136.492 22.1379 135.875 22.1379 135.293 22.1724C134.71 22.2069 134.162 22.2069 133.648 22.2414C133.134 22.2758 132.62 22.2758 132.174 22.2758C131.729 22.2758 131.283 22.2758 130.94 22.2758L130.838 19.7241L132.208 19.5172C132.38 19.1724 132.38 18.862 132.414 18.5517Z" fill="#031928"/>
<path d="M149 11.6207H146.327V34H149V11.6207Z" fill="#DAA520"/>
<path d="M146.773 31.3103H0V34H146.773V31.3103Z" fill="#DAA520"/>
</svg>
